<?xml version="1.0" encoding="utf-8"?>
<!-- Generator: Adobe Illustrator 24.0.2, SVG Export Plug-In . SVG Version: 6.00 Build 0)  -->
<svg version="1.1" id="Layer_1" xmlns="http://www.w3.org/2000/svg" xmlns:xlink="http://www.w3.org/1999/xlink" x="0px" y="0px"
	 viewBox="0 0 100 100" enable-background="new 0 0 100 100" xml:space="preserve">
<g>
	<path fill="none" stroke="#00ADFF" stroke-width="12.4849" stroke-miterlimit="10" d="M11.4,9C5.68,9,5.68,9,11.4,9h17.48
		c5.72,0,15.09,0,20.81,0h38.9c5.72,0,5.72,0,0,0H11.4z"/>
</g>
<g>
	<path fill="none" stroke="#00ADFF" stroke-width="12.4849" stroke-miterlimit="10" d="M11.4,49.5C5.68,49.5,5.68,49.5,11.4,49.5
		h17.48c5.72,0,15.09,0,20.81,0h38.9c5.72,0,5.72,0,0,0H11.4z"/>
</g>
<g>
	<path fill="none" stroke="#00ADFF" stroke-width="12.4849" stroke-miterlimit="10" d="M11.4,90C5.68,90,5.68,90,11.4,90h17.48
		c5.72,0,15.09,0,20.81,0h38.9c5.72,0,5.72,0,0,0H11.4z"/>
</g>
</svg>
